<svg xmlns="http://www.w3.org/2000/svg" width="256" height="254" viewBox="0 0 256 254">
<g>
<path d="M 0.00 0.00 L 256.00 0.00 L 256.00 254.00 L 0.00 254.00 ZM 45.57 158.43 C47.46,160.32 49.00,160.39 52.70,158.78 C57.61,156.65 62.03,152.81 64.57,148.48 L 67.03 144.27 L 78.27 144.74 C89.15,145.19 89.67,145.12 95.00,142.32 C100.73,139.31 105.99,132.96 108.00,126.64 C108.81,124.07 108.90,124.65 108.51,129.79 C108.16,134.28 108.38,136.17 109.26,136.41 C119.40,139.15 135.82,140.85 137.35,139.32 C137.72,138.94 136.81,137.37 135.33,135.82 C131.31,131.63 133.80,132.39 142.17,137.91 C150.36,143.31 153.40,144.34 166.00,146.02 C170.68,146.64 177.24,148.24 180.58,149.58 C187.95,152.52 189.18,152.57 191.50,150.00 C193.25,148.07 193.24,147.93 191.40,145.89 C188.74,142.94 183.87,140.63 173.93,137.60 C163.88,134.54 159.32,130.83 160.39,126.58 C161.31,122.92 165.79,121.00 173.43,121.00 C181.28,121.00 187.29,118.81 190.04,114.94 C192.58,111.38 192.02,108.89 186.94,101.03 C182.17,93.66 177.28,90.90 167.75,90.22 L 161.00 89.73 L 151.25 81.28 C145.89,76.63 139.93,72.02 138.00,71.02 C129.38,66.58 115.00,64.31 115.00,67.39 C115.00,69.64 121.06,76.36 127.17,80.87 C132.35,84.69 136.14,86.65 150.33,92.85 L 155.16 94.96 L 153.10 97.87 C148.43,104.42 137.28,105.71 123.80,101.26 C116.85,98.96 113.79,98.51 105.00,98.53 C93.87,98.55 91.48,99.26 84.15,104.75 C81.11,107.02 80.44,107.15 77.02,106.12 C74.94,105.50 72.68,104.32 72.00,103.50 C71.31,102.67 69.91,102.00 68.88,102.00 C67.42,102.00 67.00,102.74 67.00,105.35 C67.00,109.13 69.03,111.42 73.88,113.11 C76.18,113.91 76.95,114.69 76.53,115.79 C76.20,116.64 75.50,119.26 74.98,121.60 C72.97,130.54 69.67,134.00 63.12,134.00 C60.51,134.00 59.85,134.64 57.71,139.25 C55.28,144.51 53.09,147.19 47.17,152.16 C43.59,155.16 43.33,156.19 45.57,158.43 ZM 155.97 79.40 C160.75,84.30 164.00,86.32 164.00,84.39 C164.00,84.06 162.64,80.94 160.98,77.46 C157.42,69.99 150.96,63.86 144.27,61.58 C137.71,59.34 135.79,59.50 136.18,62.23 C136.39,63.70 138.87,66.04 143.50,69.12 C147.35,71.69 152.96,76.31 155.97,79.40 ZM 177.64 104.49 C176.90,106.43 172.62,106.45 171.01,104.51 C169.26,102.40 170.51,100.00 173.35,100.00 C176.20,100.00 178.46,102.36 177.64,104.49 ZM 254.50 1.00 C254.84,1.55 255.32,2.00 255.56,2.00 C255.80,2.00 256.00,1.55 256.00,1.00 C256.00,0.45 255.52,0.00 254.94,0.00 C254.36,0.00 254.16,0.45 254.50,1.00 Z" fill="rgb(7,119,181)"/>
<path d="M 45.57 158.43 C43.33,156.19 43.59,155.16 47.17,152.16 C53.09,147.19 55.28,144.51 57.71,139.25 C59.85,134.64 60.51,134.00 63.12,134.00 C69.67,134.00 72.97,130.54 74.98,121.60 C75.50,119.26 76.20,116.64 76.53,115.79 C76.95,114.69 76.18,113.91 73.88,113.11 C69.03,111.42 67.00,109.13 67.00,105.35 C67.00,102.74 67.42,102.00 68.88,102.00 C69.91,102.00 71.31,102.67 72.00,103.50 C72.68,104.32 74.94,105.50 77.02,106.12 C80.44,107.15 81.11,107.02 84.15,104.75 C91.48,99.26 93.87,98.55 105.00,98.53 C113.79,98.51 116.85,98.96 123.80,101.26 C137.28,105.71 148.43,104.42 153.10,97.87 L 155.16 94.96 L 150.33 92.85 C136.14,86.65 132.35,84.69 127.17,80.87 C121.06,76.36 115.00,69.64 115.00,67.39 C115.00,64.31 129.38,66.58 138.00,71.02 C139.93,72.02 145.89,76.63 151.25,81.28 L 161.00 89.73 L 167.75 90.22 C177.28,90.90 182.17,93.66 186.94,101.03 C192.02,108.89 192.58,111.38 190.04,114.94 C187.29,118.81 181.28,121.00 173.43,121.00 C165.79,121.00 161.31,122.92 160.39,126.58 C159.32,130.83 163.88,134.54 173.93,137.60 C183.87,140.63 188.74,142.94 191.40,145.89 C193.24,147.93 193.25,148.07 191.50,150.00 C189.18,152.57 187.95,152.52 180.58,149.58 C177.24,148.24 170.68,146.64 166.00,146.02 C153.40,144.34 150.36,143.31 142.17,137.91 C133.80,132.39 131.31,131.63 135.33,135.82 C136.81,137.37 137.72,138.94 137.35,139.32 C135.82,140.85 119.40,139.15 109.26,136.41 C108.38,136.17 108.16,134.28 108.51,129.79 C108.90,124.65 108.81,124.07 108.00,126.64 C105.99,132.96 100.73,139.31 95.00,142.32 C89.67,145.12 89.15,145.19 78.27,144.74 L 67.03 144.27 L 64.57 148.48 C62.03,152.81 57.61,156.65 52.70,158.78 C49.00,160.39 47.46,160.32 45.57,158.43 ZM 177.64 104.49 C178.46,102.36 176.20,100.00 173.35,100.00 C170.51,100.00 169.26,102.40 171.01,104.51 C172.62,106.45 176.90,106.43 177.64,104.49 ZM 155.97 79.40 C152.96,76.31 147.35,71.69 143.50,69.12 C138.87,66.04 136.39,63.70 136.18,62.23 C135.79,59.50 137.71,59.34 144.27,61.58 C150.96,63.86 157.42,69.99 160.98,77.46 C162.64,80.94 164.00,84.06 164.00,84.39 C164.00,86.32 160.75,84.30 155.97,79.40 ZM 254.50 1.00 C254.16,0.45 254.36,0.00 254.94,0.00 C255.52,0.00 256.00,0.45 256.00,1.00 C256.00,1.55 255.80,2.00 255.56,2.00 C255.32,2.00 254.84,1.55 254.50,1.00 Z" fill="rgb(248,249,246)"/>
</g>
</svg>