<svg xmlns="http://www.w3.org/2000/svg" viewBox="40 60 160 100">
  <path fill="#FFFFFF" d="M45.57 158.43c-2.24-2.24-1.98-3.27 1.6-6.27 5.92-4.97 8.11-7.65 10.54-12.91 2.14-4.61 2.8-5.25 5.41-5.25 6.55 0 9.85-3.46 11.86-12.4a58.08 58.08 0 0 1 1.55-5.81c.42-1.1-.35-1.88-2.65-2.68-4.85-1.69-6.88-3.98-6.88-7.76 0-2.61.42-3.35 1.88-3.35 1.03 0 2.43.67 3.12 1.5.68.82 2.94 2 5.02 2.62 3.42 1.03 4.09.9 7.13-1.37 7.33-5.49 9.72-6.2 20.85-6.22 8.79-.02 11.85.43 18.8 2.73 13.48 4.45 24.63 3.16 29.3-3.39l2.06-2.91-4.83-2.11c-14.19-6.2-17.98-8.16-23.16-11.98C121.06 76.36 115 69.64 115 67.39c0-3.08 14.38-.81 23 3.63 1.93 1 7.89 5.61 13.25 10.26l9.75 8.45 6.75.49c9.53.68 14.42 3.44 19.19 10.81 5.08 7.86 5.64 10.35 3.1 13.91-2.75 3.87-8.76 6.06-16.61 6.06-7.64 0-12.12 1.92-13.04 5.58-1.07 4.25 3.49 7.96 13.54 11.02 9.94 3.03 14.81 5.34 17.47 8.29 1.84 2.04 1.85 2.18.1 4.11-2.32 2.57-3.55 2.52-10.92-.42-3.34-1.34-9.9-2.94-14.58-3.56-12.6-1.68-15.64-2.71-23.83-8.11-8.37-5.52-10.86-6.28-6.84-2.09 1.48 1.55 2.39 3.12 2.02 3.5-1.53 1.53-17.95-.17-28.09-2.91-.88-.24-1.1-2.13-.75-6.62.39-5.14.3-5.72-.51-3.15-2.01 6.32-7.27 12.67-13 15.68-5.33 2.8-5.85 2.87-16.73 2.42l-11.24-.47-2.46 4.21a26.2 26.2 0 0 1-11.87 10.3c-3.7 1.61-5.24 1.54-7.13-.35Zm132.07-53.94c.82-2.13-1.44-4.49-4.29-4.49-2.84 0-4.09 2.4-2.34 4.51 1.61 1.94 5.89 1.92 6.63-.02ZM155.97 79.4a93.21 93.21 0 0 0-12.47-10.28c-4.63-3.08-7.11-5.42-7.32-6.89-.39-2.73 1.53-2.89 8.09-.65 6.69 2.28 13.15 8.41 16.71 15.88 1.66 3.48 3.02 6.6 3.02 6.93 0 1.93-3.25-.09-8.03-4.99ZM254.5 1c-.34-.55-.14-1 .44-1 .58 0 1.06.45 1.06 1s-.2 1-.44 1-.72-.45-1.06-1Z"/>
</svg>
